<mxfile host="app.diagrams.net" modified="2022-03-03T08:29:13.924Z" agent="5.0 (Windows NT 10.0; Win64; x64) AppleWebKit/537.36 (KHTML, like Gecko) Chrome/98.0.4758.102 Safari/537.36 Edg/98.0.1108.62" etag="SFURz--kNTlA8Jtc2y4o" version="16.4.5" type="github">
  <diagram id="KMigzAAWAquemQAdgPbw" name="Page-1">
    <mxGraphModel dx="716" dy="402" grid="1" gridSize="10" guides="1" tooltips="1" connect="1" arrows="1" fold="1" page="1" pageScale="1" pageWidth="827" pageHeight="1169" math="0" shadow="0">
      <root>
        <mxCell id="0" />
        <mxCell id="1" parent="0" />
        <mxCell id="FxcjzrnwBut2OaRnLVhM-1" value="Engine.Entity" style="rounded=0;whiteSpace=wrap;html=1;" vertex="1" parent="1">
          <mxGeometry x="380" y="230" width="90" height="50" as="geometry" />
        </mxCell>
        <mxCell id="FxcjzrnwBut2OaRnLVhM-2" value="EntityBase" style="rounded=0;whiteSpace=wrap;html=1;" vertex="1" parent="1">
          <mxGeometry x="390" y="330" width="90" height="50" as="geometry" />
        </mxCell>
        <mxCell id="FxcjzrnwBut2OaRnLVhM-3" value="EntityA" style="rounded=0;whiteSpace=wrap;html=1;" vertex="1" parent="1">
          <mxGeometry x="550" y="330" width="90" height="50" as="geometry" />
        </mxCell>
        <mxCell id="FxcjzrnwBut2OaRnLVhM-9" value="Bag" style="rounded=0;whiteSpace=wrap;html=1;" vertex="1" parent="1">
          <mxGeometry x="470" y="420" width="90" height="50" as="geometry" />
        </mxCell>
        <mxCell id="FxcjzrnwBut2OaRnLVhM-10" value="Item" style="rounded=0;whiteSpace=wrap;html=1;" vertex="1" parent="1">
          <mxGeometry x="414" y="510" width="90" height="50" as="geometry" />
        </mxCell>
        <mxCell id="FxcjzrnwBut2OaRnLVhM-11" value="ComponentA" style="rounded=0;whiteSpace=wrap;html=1;" vertex="1" parent="1">
          <mxGeometry x="640" y="420" width="90" height="50" as="geometry" />
        </mxCell>
        <mxCell id="FxcjzrnwBut2OaRnLVhM-12" value="ComponentBase" style="rounded=0;whiteSpace=wrap;html=1;" vertex="1" parent="1">
          <mxGeometry x="690" y="330" width="100" height="50" as="geometry" />
        </mxCell>
        <mxCell id="FxcjzrnwBut2OaRnLVhM-13" value="" style="endArrow=classic;html=1;rounded=0;exitX=0.5;exitY=1;exitDx=0;exitDy=0;entryX=0.5;entryY=0;entryDx=0;entryDy=0;" edge="1" parent="1" source="FxcjzrnwBut2OaRnLVhM-3" target="FxcjzrnwBut2OaRnLVhM-9">
          <mxGeometry relative="1" as="geometry">
            <mxPoint x="560" y="440" as="sourcePoint" />
            <mxPoint x="720" y="440" as="targetPoint" />
          </mxGeometry>
        </mxCell>
        <mxCell id="FxcjzrnwBut2OaRnLVhM-14" value="has" style="edgeLabel;resizable=0;html=1;align=center;verticalAlign=middle;" connectable="0" vertex="1" parent="FxcjzrnwBut2OaRnLVhM-13">
          <mxGeometry relative="1" as="geometry" />
        </mxCell>
        <mxCell id="FxcjzrnwBut2OaRnLVhM-20" value="" style="endArrow=classic;html=1;rounded=0;exitX=0.5;exitY=0;exitDx=0;exitDy=0;entryX=0.5;entryY=0;entryDx=0;entryDy=0;" edge="1" parent="1" source="FxcjzrnwBut2OaRnLVhM-11">
          <mxGeometry relative="1" as="geometry">
            <mxPoint x="820" y="339.9999999999999" as="sourcePoint" />
            <mxPoint x="740" y="379.9999999999999" as="targetPoint" />
          </mxGeometry>
        </mxCell>
        <mxCell id="FxcjzrnwBut2OaRnLVhM-21" value="inherit" style="edgeLabel;resizable=0;html=1;align=center;verticalAlign=middle;" connectable="0" vertex="1" parent="FxcjzrnwBut2OaRnLVhM-20">
          <mxGeometry relative="1" as="geometry" />
        </mxCell>
        <mxCell id="FxcjzrnwBut2OaRnLVhM-23" value="" style="endArrow=classic;html=1;rounded=0;exitX=0.5;exitY=1;exitDx=0;exitDy=0;entryX=0.5;entryY=0;entryDx=0;entryDy=0;" edge="1" parent="1" source="FxcjzrnwBut2OaRnLVhM-3" target="FxcjzrnwBut2OaRnLVhM-11">
          <mxGeometry relative="1" as="geometry">
            <mxPoint x="630" y="529.9999999999999" as="sourcePoint" />
            <mxPoint x="550" y="569.9999999999999" as="targetPoint" />
          </mxGeometry>
        </mxCell>
        <mxCell id="FxcjzrnwBut2OaRnLVhM-24" value="has" style="edgeLabel;resizable=0;html=1;align=center;verticalAlign=middle;" connectable="0" vertex="1" parent="FxcjzrnwBut2OaRnLVhM-23">
          <mxGeometry relative="1" as="geometry" />
        </mxCell>
        <mxCell id="FxcjzrnwBut2OaRnLVhM-26" value="" style="endArrow=classic;html=1;rounded=0;exitX=0.5;exitY=1;exitDx=0;exitDy=0;entryX=0.5;entryY=0;entryDx=0;entryDy=0;" edge="1" parent="1" target="FxcjzrnwBut2OaRnLVhM-10">
          <mxGeometry relative="1" as="geometry">
            <mxPoint x="520" y="469.9999999999999" as="sourcePoint" />
            <mxPoint x="440" y="509.9999999999999" as="targetPoint" />
          </mxGeometry>
        </mxCell>
        <mxCell id="FxcjzrnwBut2OaRnLVhM-27" value="has" style="edgeLabel;resizable=0;html=1;align=center;verticalAlign=middle;" connectable="0" vertex="1" parent="FxcjzrnwBut2OaRnLVhM-26">
          <mxGeometry relative="1" as="geometry" />
        </mxCell>
        <mxCell id="FxcjzrnwBut2OaRnLVhM-29" value="" style="endArrow=classic;html=1;rounded=0;exitX=0.5;exitY=0;exitDx=0;exitDy=0;entryX=0.591;entryY=1.016;entryDx=0;entryDy=0;entryPerimeter=0;" edge="1" parent="1" source="FxcjzrnwBut2OaRnLVhM-2" target="FxcjzrnwBut2OaRnLVhM-1">
          <mxGeometry relative="1" as="geometry">
            <mxPoint x="695" y="429.9999999999999" as="sourcePoint" />
            <mxPoint x="750" y="389.9999999999999" as="targetPoint" />
          </mxGeometry>
        </mxCell>
        <mxCell id="FxcjzrnwBut2OaRnLVhM-30" value="inherit" style="edgeLabel;resizable=0;html=1;align=center;verticalAlign=middle;" connectable="0" vertex="1" parent="FxcjzrnwBut2OaRnLVhM-29">
          <mxGeometry relative="1" as="geometry" />
        </mxCell>
        <mxCell id="FxcjzrnwBut2OaRnLVhM-31" value="" style="endArrow=classic;html=1;rounded=0;exitX=0;exitY=0.5;exitDx=0;exitDy=0;entryX=1;entryY=0.5;entryDx=0;entryDy=0;" edge="1" parent="1" source="FxcjzrnwBut2OaRnLVhM-3" target="FxcjzrnwBut2OaRnLVhM-2">
          <mxGeometry relative="1" as="geometry">
            <mxPoint x="705" y="439.9999999999999" as="sourcePoint" />
            <mxPoint x="760" y="399.9999999999999" as="targetPoint" />
          </mxGeometry>
        </mxCell>
        <mxCell id="FxcjzrnwBut2OaRnLVhM-32" value="inherit" style="edgeLabel;resizable=0;html=1;align=center;verticalAlign=middle;" connectable="0" vertex="1" parent="FxcjzrnwBut2OaRnLVhM-31">
          <mxGeometry relative="1" as="geometry" />
        </mxCell>
      </root>
    </mxGraphModel>
  </diagram>
</mxfile>
